<svg t="1640567890000" class="icon" viewBox="0 0 1024 1024" version="1.1" xmlns="http://www.w3.org/2000/svg" p-id="3041" width="200" height="200">
  <path d="M512 64c247.4 0 448 200.6 448 448s-200.6 448-448 448S64 759.4 64 512 264.6 64 512 64z m0 64C299.9 128 128 299.9 128 512s171.9 384 384 384 384-171.9 384-384S724.1 128 512 128z m-64 256a32 32 0 0 1 32-32h64a32 32 0 0 1 32 32v128h128a32 32 0 0 1 32 32v64a32 32 0 0 1-32 32H576v128a32 32 0 0 1-32 32h-64a32 32 0 0 1-32-32V640H320a32 32 0 0 1-32-32v-64a32 32 0 0 1 32-32h128V384z" p-id="3042"></path>
</svg>